HIERARCHY
ROOT joint_0
{
	OFFSET 0.000000 0.000000 0.000000
	CHANNELS 6 Xposition Yposition Zposition Zrotation Yrotation Xrotation 
	JOINT joint_1
	{
		OFFSET 6.590088 -1.122192 114.019043
		CHANNELS 3 Zrotation Yrotation Xrotation
		JOINT joint_2
		{
			OFFSET -5.956055 -0.820435 104.151001
			CHANNELS 3 Zrotation Yrotation Xrotation
			JOINT joint_3
			{
				OFFSET -7.343506 -1.103027 103.942993
				CHANNELS 3 Zrotation Yrotation Xrotation
				JOINT joint_4
				{
					OFFSET 3.109131 -2.857056 147.715942
					CHANNELS 3 Zrotation Yrotation Xrotation
					JOINT joint_5
					{
						OFFSET 28.592285 -2.852295 87.703979
						CHANNELS 3 Zrotation Yrotation Xrotation
						End Site
						{
							OFFSET 0.000000 0.000000 0.000000
						}
					}
				}
				JOINT joint_6
				{
					OFFSET -0.332520 -33.687378 82.401978
					CHANNELS 3 Zrotation Yrotation Xrotation
					JOINT joint_7
					{
						OFFSET -7.397461 -168.719177 -22.750977
						CHANNELS 3 Zrotation Yrotation Xrotation
						JOINT joint_8
						{
							OFFSET 17.065918 -24.903137 -272.721069
							CHANNELS 3 Zrotation Yrotation Xrotation
							JOINT joint_9
							{
								OFFSET 33.311279 -37.031616 -278.192993
								CHANNELS 3 Zrotation Yrotation Xrotation
								End Site
								{
									OFFSET 0.000000 0.000000 0.000000
								}
							}
						}
					}
				}
				JOINT joint_10
				{
					OFFSET 3.914307 30.461670 83.552979
					CHANNELS 3 Zrotation Yrotation Xrotation
					JOINT joint_11
					{
						OFFSET 15.543701 166.845459 -30.963013
						CHANNELS 3 Zrotation Yrotation Xrotation
						JOINT joint_12
						{
							OFFSET 35.734863 35.017700 -269.786011
							CHANNELS 3 Zrotation Yrotation Xrotation
							JOINT joint_13
							{
								OFFSET 70.506592 13.977783 -273.320007
								CHANNELS 3 Zrotation Yrotation Xrotation
								End Site
								{
									OFFSET 0.000000 0.000000 0.000000
								}
							}
						}
					}
				}
			}
		}
	}
	JOINT joint_14
	{
		OFFSET -0.314697 -95.093994 -116.004028
		CHANNELS 3 Zrotation Yrotation Xrotation
		JOINT joint_15
		{
			OFFSET -22.490723 2.017883 -455.510986
			CHANNELS 3 Zrotation Yrotation Xrotation
			JOINT joint_16
			{
				OFFSET -46.427490 7.144104 -496.360985
				CHANNELS 3 Zrotation Yrotation Xrotation
				JOINT joint_17
				{
					OFFSET 209.055420 -37.122803 -85.191002
					CHANNELS 3 Zrotation Yrotation Xrotation
					End Site
					{
						OFFSET 0.000000 0.000000 0.000000
					}
				}
			}
		}
	}
	JOINT joint_18
	{
		OFFSET 5.652832 94.642578 -116.244019
		CHANNELS 3 Zrotation Yrotation Xrotation
		JOINT joint_19
		{
			OFFSET -12.379883 -7.332642 -455.843994
			CHANNELS 3 Zrotation Yrotation Xrotation
			JOINT joint_20
			{
				OFFSET -45.227051 -8.172241 -496.457985
				CHANNELS 3 Zrotation Yrotation Xrotation
				JOINT joint_21
				{
					OFFSET 210.522949 -11.530396 -88.809004
					CHANNELS 3 Zrotation Yrotation Xrotation
					End Site
					{
						OFFSET 0.000000 0.000000 0.000000
					}
				}
			}
		}
	}
}
MOTION
Frames: 7
Frame Time: 0.016667
-3082.465576 1033.180664 1178.588013 -0.789865 -4.174467 -0.214719 -0.168181 0.941735 -5.348167 0.165372 -0.207082 1.207995 0.018202 0.211823 -0.797307 0.622792 -2.621001 -2.064385 0.000000 0.000000 0.000000 0.211882 2.477683 1.413463 -0.200481 2.743946 -3.469886 0.632947 -2.214785 2.751449 0.000000 0.000000 0.000000 4.650341 1.228019 0.787223 0.576516 0.571515 -0.267772 1.799735 2.810331 6.768851 0.000000 0.000000 0.000000 -1.627825 -6.238354 -3.357538 -1.718711 10.253944 1.132047 -1.821938 2.046588 -0.366709 0.000000 0.000000 0.000000 1.992831 4.156552 -4.153176 1.893827 -1.305282 1.034076 1.893450 0.287770 0.809196 0.000000 0.000000 0.000000 
-3082.223633 1033.073608 1178.510010 -0.606980 -4.274544 -0.215207 -0.226947 0.952445 -5.385460 0.111104 -0.202687 1.216794 -0.036968 0.216720 -0.801089 0.587424 -2.823664 -1.974919 0.000000 0.000000 0.000000 0.203922 2.475938 1.459090 -0.202646 2.745191 -3.518570 0.637209 -2.220040 2.781605 0.000000 0.000000 0.000000 4.623285 1.248545 0.825441 0.577788 0.601068 -0.268012 1.790651 2.801793 6.731062 0.000000 0.000000 0.000000 -1.684751 -6.072040 -3.354890 -1.774544 10.226046 1.107932 -1.874930 2.002459 -0.395888 0.000000 0.000000 0.000000 1.935190 4.256366 -4.159330 1.837478 -1.263427 1.051471 1.842417 0.243264 0.785400 0.000000 0.000000 0.000000 
-3081.915039 1032.914307 1178.370972 -0.143989 -4.369112 -0.157408 -0.375840 0.953599 -5.528721 -0.025205 -0.199810 1.233238 -0.174891 0.229359 -0.806641 0.544790 -2.991625 -1.861056 0.000000 0.000000 0.000000 0.107157 2.458809 1.498878 -0.202107 2.716938 -3.536713 0.635190 -2.167651 2.822223 0.000000 0.000000 0.000000 4.576181 1.259867 0.901011 0.576402 0.629463 -0.281356 1.785088 2.814633 6.705143 0.000000 0.000000 0.000000 -1.827496 -5.887065 -3.448138 -1.918517 10.227084 1.098696 -2.009483 1.912955 -0.465849 0.000000 0.000000 0.000000 1.789713 4.341611 -4.235308 1.692833 -1.209531 1.070805 1.706752 0.192147 0.725789 0.000000 0.000000 0.000000 
-3081.443359 1032.713867 1178.201050 0.476907 -4.461626 -0.069330 -0.568970 0.958427 -5.727356 -0.201276 -0.197406 1.252194 -0.352714 0.246499 -0.811773 0.500235 -3.148173 -1.740849 0.000000 0.000000 0.000000 -0.039219 2.453399 1.532881 -0.200105 2.692352 -3.535490 0.634133 -2.111379 2.874577 0.000000 0.000000 0.000000 4.522633 1.268868 0.996809 0.574333 0.658663 -0.296159 1.777566 2.823326 6.673433 0.000000 0.000000 0.000000 -2.017938 -5.682402 -3.594107 -2.111930 10.242667 1.101499 -2.189058 1.794183 -0.559107 0.000000 0.000000 0.000000 1.593191 4.431897 -4.344601 1.497756 -1.160417 1.087418 1.522131 0.140973 0.645665 0.000000 0.000000 0.000000 
-3080.374023 1032.444580 1178.076050 1.021689 -4.515854 -0.002189 -0.705788 0.971760 -5.895211 -0.322059 -0.195440 1.280109 -0.476383 0.258720 -0.824595 0.462915 -3.375564 -1.648746 0.000000 0.000000 0.000000 -0.165483 2.553197 1.563870 -0.199573 2.775756 -3.527256 0.654702 -2.199980 2.946899 0.000000 0.000000 0.000000 4.511049 1.294689 1.081851 0.576733 0.693471 -0.277872 1.751263 2.752053 6.583449 0.000000 0.000000 0.000000 -2.182306 -5.491173 -3.709587 -2.279482 10.250433 1.112705 -2.343064 1.666406 -0.643825 0.000000 0.000000 0.000000 1.413874 4.546049 -4.411522 1.322631 -1.175157 1.085209 1.353341 0.117419 0.573700 0.000000 0.000000 0.000000 
-3078.558350 1032.073120 1177.989014 1.375106 -4.549479 0.012857 -0.728132 1.057999 -5.974162 -0.335758 -0.211559 1.316629 -0.493915 0.286850 -0.847805 0.439724 -3.751556 -1.611827 0.000000 0.000000 0.000000 -0.229919 2.730105 1.653346 -0.211842 2.951872 -3.579765 0.670327 -2.214328 3.069672 0.000000 0.000000 0.000000 4.534259 1.268891 1.082327 0.555486 0.652123 -0.201770 1.730577 2.887806 6.487829 0.000000 0.000000 0.000000 -2.281804 -5.280109 -3.743837 -2.381973 10.219252 1.126624 -2.434528 1.527644 -0.705579 0.000000 0.000000 0.000000 1.282076 4.735444 -4.391459 1.199087 -1.289930 1.061080 1.230198 0.112608 0.521899 0.000000 0.000000 0.000000 
-3076.143799 1031.633545 1177.947021 1.652705 -4.542390 0.007352 -0.694287 1.149335 -6.017248 -0.295092 -0.228844 1.358997 -0.457843 0.312933 -0.878082 0.425025 -4.199347 -1.607935 0.000000 0.000000 0.000000 -0.272402 3.010506 1.748622 -0.225491 3.235251 -3.629424 0.707580 -2.375425 3.212462 0.000000 0.000000 0.000000 4.600809 1.258603 1.069623 0.538974 0.614156 -0.087795 1.691258 2.946388 6.331984 0.000000 0.000000 0.000000 -2.355073 -5.084152 -3.746023 -2.458288 10.179553 1.147290 -2.500629 1.380808 -0.758694 0.000000 0.000000 0.000000 1.167787 4.946754 -4.328053 1.095733 -1.469150 1.017966 1.123169 0.137391 0.478472 0.000000 0.000000 0.000000 
